<mxfile host="Electron" modified="2024-06-18T13:11:22.303Z" agent="Mozilla/5.0 (Windows NT 10.0; Win64; x64) AppleWebKit/537.36 (KHTML, like Gecko) draw.io/24.5.3 Chrome/124.0.6367.207 Electron/30.0.6 Safari/537.36" etag="VUsZ5hFoPynGh_DK_Iz6" version="24.5.3" type="device">
  <diagram id="C5RBs43oDa-KdzZeNtuy" name="Page-1">
    <mxGraphModel dx="1098" dy="820" grid="1" gridSize="10" guides="1" tooltips="1" connect="1" arrows="1" fold="1" page="1" pageScale="1" pageWidth="827" pageHeight="1169" math="0" shadow="0">
      <root>
        <mxCell id="WIyWlLk6GJQsqaUBKTNV-0" />
        <mxCell id="WIyWlLk6GJQsqaUBKTNV-1" parent="WIyWlLk6GJQsqaUBKTNV-0" />
        <mxCell id="UouPSL3YoMBt7oU9wibN-0" value="" style="rounded=0;html=1;jettySize=auto;orthogonalLoop=1;fontSize=11;endArrow=block;endFill=0;endSize=8;strokeWidth=1;shadow=0;labelBackgroundColor=none;edgeStyle=orthogonalEdgeStyle;" edge="1" parent="WIyWlLk6GJQsqaUBKTNV-1" source="UouPSL3YoMBt7oU9wibN-1" target="UouPSL3YoMBt7oU9wibN-3">
          <mxGeometry relative="1" as="geometry" />
        </mxCell>
        <mxCell id="UouPSL3YoMBt7oU9wibN-1" value="Start REST api" style="rounded=1;whiteSpace=wrap;html=1;fontSize=12;glass=0;strokeWidth=1;shadow=0;" vertex="1" parent="WIyWlLk6GJQsqaUBKTNV-1">
          <mxGeometry x="160" y="70" width="120" height="40" as="geometry" />
        </mxCell>
        <mxCell id="UouPSL3YoMBt7oU9wibN-2" style="edgeStyle=orthogonalEdgeStyle;rounded=0;orthogonalLoop=1;jettySize=auto;html=1;exitX=0.5;exitY=1;exitDx=0;exitDy=0;" edge="1" parent="WIyWlLk6GJQsqaUBKTNV-1" source="UouPSL3YoMBt7oU9wibN-3" target="UouPSL3YoMBt7oU9wibN-5">
          <mxGeometry relative="1" as="geometry" />
        </mxCell>
        <mxCell id="UouPSL3YoMBt7oU9wibN-3" value="Are their weather stations configured?" style="rhombus;whiteSpace=wrap;html=1;shadow=0;fontFamily=Helvetica;fontSize=12;align=center;strokeWidth=1;spacing=6;spacingTop=-4;" vertex="1" parent="WIyWlLk6GJQsqaUBKTNV-1">
          <mxGeometry x="120" y="180" width="200" height="160" as="geometry" />
        </mxCell>
        <mxCell id="UouPSL3YoMBt7oU9wibN-4" style="edgeStyle=orthogonalEdgeStyle;rounded=0;orthogonalLoop=1;jettySize=auto;html=1;exitX=0.5;exitY=1;exitDx=0;exitDy=0;entryX=0.5;entryY=0;entryDx=0;entryDy=0;" edge="1" parent="WIyWlLk6GJQsqaUBKTNV-1" source="UouPSL3YoMBt7oU9wibN-5" target="UouPSL3YoMBt7oU9wibN-7">
          <mxGeometry relative="1" as="geometry" />
        </mxCell>
        <mxCell id="UouPSL3YoMBt7oU9wibN-5" value="Start summary creators" style="rounded=1;whiteSpace=wrap;html=1;" vertex="1" parent="WIyWlLk6GJQsqaUBKTNV-1">
          <mxGeometry x="160" y="380" width="120" height="60" as="geometry" />
        </mxCell>
        <mxCell id="UouPSL3YoMBt7oU9wibN-6" style="edgeStyle=orthogonalEdgeStyle;rounded=0;orthogonalLoop=1;jettySize=auto;html=1;entryX=0.5;entryY=0;entryDx=0;entryDy=0;" edge="1" parent="WIyWlLk6GJQsqaUBKTNV-1" source="UouPSL3YoMBt7oU9wibN-7" target="UouPSL3YoMBt7oU9wibN-8">
          <mxGeometry relative="1" as="geometry" />
        </mxCell>
        <mxCell id="UouPSL3YoMBt7oU9wibN-7" value="Are their weather stations configured with a local recorder?" style="rhombus;whiteSpace=wrap;html=1;shadow=0;fontFamily=Helvetica;fontSize=12;align=center;strokeWidth=1;spacing=6;spacingTop=-4;" vertex="1" parent="WIyWlLk6GJQsqaUBKTNV-1">
          <mxGeometry x="120" y="480" width="200" height="170" as="geometry" />
        </mxCell>
        <mxCell id="UouPSL3YoMBt7oU9wibN-8" value="Start local recorder" style="rounded=1;whiteSpace=wrap;html=1;" vertex="1" parent="WIyWlLk6GJQsqaUBKTNV-1">
          <mxGeometry x="160" y="700" width="120" height="60" as="geometry" />
        </mxCell>
      </root>
    </mxGraphModel>
  </diagram>
</mxfile>
